<?xml version="1.0" encoding="utf-8"?>
<!-- Generator: Adobe Illustrator 16.0.3, SVG Export Plug-In . SVG Version: 6.00 Build 0)  -->
<!DOCTYPE svg PUBLIC "-//W3C//DTD SVG 1.1//EN" "http://www.w3.org/Graphics/SVG/1.1/DTD/svg11.dtd">
<svg version="1.1" id="Layer_1" xmlns="http://www.w3.org/2000/svg" xmlns:xlink="http://www.w3.org/1999/xlink" x="0px" y="0px"
	 width="425.201px" height="425.199px" viewBox="0 0 425.201 425.199" enable-background="new 0 0 425.201 425.199"
	 xml:space="preserve">
<g id="XMLID_1_">
	<g>
		<path fill="#A7CE30" d="M280.631,102.05c33.17,0,59.529,26.36,59.529,59.53c0,43.37-27.21,72.28-127.56,153.92
			C112.25,233.86,85.04,204.95,85.04,161.58c0-33.17,26.36-59.53,59.53-59.53c29.76,0,45.92,17.86,58.68,32.31l9.35,11.06
			l9.35-11.06C234.711,119.91,250.87,102.05,280.631,102.05z"/>
		<path fill="#222222" d="M280.631,85.04c42.52,0,76.54,34.02,76.54,76.54c0,51.02-29.771,82.48-139.471,171.78l-5.1,4.25l-5.1-4.25
			c-109.7-89.3-139.47-120.76-139.47-171.78c0-42.52,34.02-76.54,76.54-76.54c34.86,0,54.42,19.56,68.03,34.87
			C226.211,104.6,245.77,85.04,280.631,85.04z M340.16,161.58c0-33.17-26.359-59.53-59.529-59.53
			c-29.761,0-45.92,17.86-58.681,32.31l-9.35,11.06l-9.35-11.06c-12.76-14.45-28.92-32.31-58.68-32.31
			c-33.17,0-59.53,26.36-59.53,59.53c0,43.37,27.21,72.28,127.56,153.92C312.95,233.86,340.16,204.95,340.16,161.58z"/>
	</g>
	<g>
	</g>
</g>
</svg>
